<svg width="111" height="110" viewBox="0 0 111 110" fill="none" xmlns="http://www.w3.org/2000/svg">
<g clip-path="url(#clip0_4_321)">
<path d="M20.1653 8.86617e-06H91.207C93.7657 -0.00246458 96.2998 0.51261 98.6642 1.51575C101.029 2.5189 103.177 3.99042 104.986 5.8461C106.796 7.70178 108.23 9.90519 109.208 12.3302C110.186 14.7553 110.689 17.3543 110.686 19.9786V90.0214C110.689 92.6457 110.186 95.2448 109.208 97.6698C108.23 100.095 106.796 102.298 104.986 104.154C103.177 106.01 101.029 107.481 98.6642 108.484C96.2998 109.487 93.7657 110.002 91.207 110H20.1653C17.6066 110.002 15.0725 109.487 12.7081 108.484C10.3437 107.481 8.19539 106.01 6.3861 104.154C4.57682 102.298 3.14208 100.095 2.16402 97.6698C1.18595 95.2448 0.683754 92.6457 0.686166 90.0214V19.9786C0.683754 17.3543 1.18595 14.7553 2.16402 12.3302C3.14208 9.90519 4.57682 7.70178 6.3861 5.8461C8.19539 3.99042 10.3437 2.5189 12.7081 1.51575C15.0725 0.51261 17.6066 -0.00246458 20.1653 8.86617e-06Z" fill="#F0F0F0"/>
<path d="M55.6942 97.6203L30.9512 90.7514L25.4373 28.907H86.0253L80.5056 90.7419L55.6942 97.6203Z" fill="#264DE4"/>
<path d="M75.7798 86.8048L80.4965 33.964H55.731V92.363L75.7798 86.8048Z" fill="#2965F1"/>
<path d="M38.0774 56.9013L38.7571 64.4862H55.7308V56.9013H38.0774ZM36.7113 41.5492L37.4008 49.1342H55.7308V41.5492H36.7113ZM55.7308 76.6003L55.6976 76.6091L47.2503 74.3281L46.7102 68.2788H39.096L40.1586 80.1884L55.6959 84.5014L55.7308 84.4919V76.6003Z" fill="#EBEBEB"/>
<path d="M39.6959 12.1006H48.8823V15.9423H43.5377V19.7841H48.8828V23.6256H39.6959V12.1006ZM50.7198 12.1006H59.9065V15.4412H54.5616V16.1093H59.9065V23.7928H50.7201V20.2848H56.065V19.6167H50.7196V12.1006H50.7198ZM61.744 12.1006H70.9307V15.4412H65.5858V16.1093H70.9307V23.7928H61.744V20.2848H67.0889V19.6167H61.7443V12.1006H61.744Z" fill="black"/>
<path d="M73.3362 56.9013L74.7054 41.5492H55.7051V49.1342H66.3929L65.7028 56.9013H55.7051V64.4862H65.0451L64.1645 74.3234L55.7048 76.6067V84.4978L71.2545 80.1884L71.3685 78.9069L73.1512 58.9381L73.3362 56.9013Z" fill="white"/>
</g>
<defs>
<clipPath id="clip0_4_321">
<rect width="110" height="110" fill="white" transform="translate(0.686157)"/>
</clipPath>
</defs>
</svg>
