<svg width="111" height="110" viewBox="0 0 111 110" fill="none" xmlns="http://www.w3.org/2000/svg">
<g clip-path="url(#clip0_4_313)">
<path d="M20.1653 8.86617e-06H91.207C93.7657 -0.00246458 96.2998 0.51261 98.6642 1.51575C101.029 2.5189 103.177 3.99042 104.986 5.8461C106.796 7.70178 108.23 9.90519 109.208 12.3302C110.186 14.7553 110.689 17.3543 110.686 19.9786V90.0214C110.689 92.6457 110.186 95.2447 109.208 97.6698C108.23 100.095 106.796 102.298 104.986 104.154C103.177 106.01 101.029 107.481 98.6642 108.484C96.2998 109.487 93.7657 110.002 91.207 110H20.1653C17.6066 110.002 15.0725 109.487 12.7081 108.484C10.3437 107.481 8.19539 106.01 6.3861 104.154C4.57681 102.298 3.14208 100.095 2.16402 97.6698C1.18595 95.2447 0.683754 92.6457 0.686166 90.0214V19.9786C0.683754 17.3543 1.18595 14.7553 2.16402 12.3302C3.14208 9.90519 4.57681 7.70178 6.3861 5.8461C8.19539 3.99042 10.3437 2.5189 12.7081 1.51575C15.0725 0.51261 17.6066 -0.00246458 20.1653 8.86617e-06Z" fill="#F0F0F0"/>
<path d="M85.9812 28.9077L80.4614 90.7441L55.6494 97.6227L30.9058 90.7536L25.3917 28.9077H85.9812Z" fill="#E44D26"/>
<path d="M55.6862 92.3651L75.7355 86.8068L80.4523 33.9647H55.6862V92.3651Z" fill="#F16529"/>
<path d="M44.9561 49.1351H55.6865V41.5499H36.6665L36.848 43.5849L38.7124 64.4875H55.6865V56.9024H45.6494L44.9561 49.1351ZM46.6656 68.2802H39.0513L40.1139 80.1901L55.6516 84.5031L55.6865 84.4936V76.6019L55.6532 76.6106L47.2057 74.3297L46.6656 68.2802Z" fill="#EBEBEB"/>
<path d="M31.0291 12.1006H34.8837V15.909H38.4099V12.1006H42.2649V23.6333H38.4102V19.7715H34.884V23.6333H31.0293V12.1006H31.0291ZM47.3337 15.9251H43.9407V12.1006H54.5842V15.9251H51.1891V23.6333H47.3344V15.9251H47.3341H47.3337ZM56.2733 12.1006H60.2926L62.765 16.1529L65.235 12.1006H69.2559V23.6333H65.4169V17.917L62.765 22.0175H62.6985L60.0448 17.917V23.6333H56.2733V12.1006ZM71.1742 12.1006H75.0301V19.8213H80.4509V23.6333H71.174V12.1006H71.1742Z" fill="black"/>
<path d="M55.6603 64.4875H65.0006L64.1199 74.3249L55.66 76.6083V84.4996L71.2101 80.1901L71.3241 78.9085L73.1068 58.9392L73.2918 56.9024H55.6603V64.4875ZM55.6603 49.1165V49.1351H73.982L74.134 47.4303L74.4798 43.5849L74.661 41.5499H55.6603V49.1168V49.1165Z" fill="white"/>
</g>
<defs>
<clipPath id="clip0_4_313">
<rect width="110" height="110" fill="white" transform="translate(0.686157)"/>
</clipPath>
</defs>
</svg>
