<svg width="111" height="110" viewBox="0 0 111 110" fill="none" xmlns="http://www.w3.org/2000/svg">
<g clip-path="url(#clip0_4_304)">
<path d="M19.793 8.86617e-06H90.8347C93.3934 -0.00246458 95.9275 0.51261 98.2919 1.51575C100.656 2.5189 102.805 3.99042 104.614 5.8461C106.423 7.70178 107.858 9.90519 108.836 12.3302C109.814 14.7553 110.316 17.3543 110.314 19.9786V90.0214C110.316 92.6457 109.814 95.2447 108.836 97.6698C107.858 100.095 106.423 102.298 104.614 104.154C102.805 106.01 100.656 107.481 98.2919 108.484C95.9275 109.487 93.3934 110.002 90.8347 110H19.793C17.2343 110.002 14.7002 109.487 12.3358 108.484C9.9714 107.481 7.82308 106.01 6.01379 104.154C4.2045 102.298 2.76977 100.095 1.7917 97.6698C0.813637 95.2447 0.31144 92.6457 0.313851 90.0214V19.9786C0.31144 17.3543 0.813637 14.7553 1.7917 12.3302C2.76977 9.90519 4.2045 7.70178 6.01379 5.8461C7.82308 3.99042 9.9714 2.5189 12.3358 1.51575C14.7002 0.51261 17.2343 -0.00246458 19.793 8.86617e-06Z" fill="#F7DF1E"/>
<path d="M74.3929 86.0703C76.6086 89.6881 79.4913 92.3473 84.5897 92.3473C88.8727 92.3473 91.6087 90.2067 91.6087 87.2489C91.6087 83.7044 88.7976 82.449 84.0834 80.387L81.4992 79.2783C74.0402 76.1005 69.0849 72.1195 69.0849 63.7036C69.0849 55.9513 74.9918 50.0497 84.223 50.0497C90.7951 50.0497 95.5199 52.337 98.9246 58.3259L90.8754 63.4941C89.1032 60.3163 87.1913 59.0644 84.223 59.0644C81.1954 59.0644 79.2765 60.9851 79.2765 63.4941C79.2765 66.5951 81.1972 67.8505 85.6321 69.7711L88.2162 70.8781C96.9987 74.6443 101.957 78.4838 101.957 87.1162C101.957 96.4225 94.6469 101.521 84.8289 101.521C75.2292 101.521 69.0273 96.9463 65.9927 90.9505L74.3929 86.0703ZM37.8781 86.966C39.5019 89.847 40.9791 92.2827 44.5305 92.2827C47.9265 92.2827 50.0689 90.954 50.0689 85.7875V50.6398H60.4054V85.9271C60.4054 96.6303 54.1302 101.502 44.9705 101.502C36.6943 101.502 31.9014 97.2187 29.464 92.0601L37.8781 86.966Z" fill="black"/>
</g>
<defs>
<clipPath id="clip0_4_304">
<rect width="110" height="110" fill="white" transform="translate(0.313843)"/>
</clipPath>
</defs>
</svg>
