<svg width="110" height="98" viewBox="0 0 110 98" fill="none" xmlns="http://www.w3.org/2000/svg">
<g clip-path="url(#clip0_4_307)">
<path d="M54.9996 58.6225C60.3835 58.6225 64.748 54.3144 64.748 49.0002C64.748 43.686 60.3835 39.3779 54.9996 39.3779C49.6157 39.3779 45.2512 43.686 45.2512 49.0002C45.2512 54.3144 49.6157 58.6225 54.9996 58.6225Z" fill="#61DAFB"/>
<path fill-rule="evenodd" clip-rule="evenodd" d="M8.32929 42.9963C5.96403 45.1039 4.97039 47.1366 4.97039 49.0004C4.97039 50.8642 5.96403 52.8969 8.32929 55.0044C10.6943 57.1118 14.2445 59.1126 18.8254 60.8391C27.9715 64.286 40.7606 66.4652 55.0003 66.4652C69.2399 66.4652 82.0291 64.286 91.1752 60.8391C95.756 59.1126 99.3062 57.1118 101.671 55.0044C104.036 52.8969 105.03 50.8642 105.03 49.0004C105.03 47.1366 104.036 45.1039 101.671 42.9963C99.3062 40.889 95.756 38.8881 91.1752 37.1617C82.0291 33.7147 69.2399 31.5356 55.0003 31.5356C40.7606 31.5356 27.9715 33.7147 18.8254 37.1617C14.2445 38.8881 10.6943 40.889 8.32929 42.9963ZM17.1998 32.9594C26.9857 29.2713 40.3508 27.0374 55.0003 27.0374C69.6497 27.0374 83.0149 29.2713 92.8007 32.9594C97.6858 34.8005 101.796 37.0476 104.725 39.6573C107.654 42.2669 109.587 45.4203 109.587 49.0004C109.587 52.5804 107.654 55.7339 104.725 58.3434C101.796 60.9532 97.6858 63.2003 92.8007 65.0414C83.0149 68.7295 69.6497 70.9634 55.0003 70.9634C40.3508 70.9634 26.9857 68.7295 17.1998 65.0414C12.3147 63.2003 8.20451 60.9532 5.27562 58.3434C2.34698 55.7339 0.413208 52.5804 0.413208 49.0004C0.413208 45.4203 2.34698 42.2669 5.27562 39.6573C8.20451 37.0476 12.3147 34.8005 17.1998 32.9594Z" fill="#61DAFB"/>
<path fill-rule="evenodd" clip-rule="evenodd" d="M36.9321 6.10288C33.9003 5.13478 31.6201 5.30175 29.9848 6.23365C28.3496 7.16555 27.0629 9.03129 26.3964 12.1069C25.73 15.1823 25.7496 19.2175 26.5253 23.9965C28.0741 33.5383 32.5567 45.5602 39.6765 57.7326C46.7964 69.905 55.1029 79.7478 62.7002 85.8426C66.5054 88.8952 70.036 90.9296 73.0674 91.8976C76.0991 92.8657 78.3794 92.6987 80.0147 91.7668C81.6499 90.8349 82.9366 88.9691 83.6031 85.8935C84.2695 82.8182 84.2499 78.783 83.4742 74.0039C81.9254 64.4622 77.4428 52.4402 70.323 40.2678C63.2031 28.0954 54.8966 18.2526 47.2993 12.1578C43.4941 9.10521 39.9635 7.07088 36.9321 6.10288ZM50.1735 8.66712C58.3023 15.1882 66.9449 25.496 74.2696 38.0187C81.5943 50.5414 86.3169 63.0831 87.974 73.2923C88.8012 78.3887 88.8847 83.0258 88.0594 86.8343C87.2342 90.6426 85.4343 93.8723 82.2933 95.6624C79.1522 97.4524 75.4186 97.3761 71.6647 96.1774C67.9105 94.9786 63.8838 92.5887 59.826 89.3333C51.6972 82.8122 43.0546 72.5044 35.7299 59.9817C28.4051 47.459 23.6826 34.9173 22.0255 24.7081C21.1983 19.6117 21.1148 14.9746 21.9401 11.1661C22.7653 7.35785 24.5652 4.1281 27.7062 2.33808C30.8473 0.548056 34.5809 0.624356 38.3348 1.82305C42.089 3.02185 46.1157 5.41178 50.1735 8.66712Z" fill="#61DAFB"/>
<path fill-rule="evenodd" clip-rule="evenodd" d="M83.6036 12.1073C82.9372 9.03165 81.6505 7.1659 80.0153 6.234C78.38 5.3021 76.0997 5.13513 73.068 6.10324C70.0366 7.07124 66.506 9.10557 62.7008 12.1582C55.1035 18.253 46.797 28.0958 39.6771 40.2682C32.5573 52.4405 28.0747 64.4625 26.5259 74.0043C25.7502 78.7833 25.7306 82.8185 26.397 85.8939C27.0635 88.9695 28.3501 90.8352 29.9854 91.7671C31.6207 92.699 33.9009 92.866 36.9327 91.8979C39.9641 90.9299 43.4947 88.8956 47.2999 85.843C54.8972 79.7482 63.2037 69.9053 70.3236 57.733C77.4434 45.5606 81.926 33.5386 83.4748 23.9969C84.2505 19.2178 84.2701 15.1826 83.6036 12.1073ZM87.9746 24.7085C86.3175 34.9176 81.5949 47.4594 74.2702 59.9821C66.9454 72.5048 58.3029 82.8126 50.1741 89.3337C46.1163 92.589 42.0896 94.9789 38.3354 96.1777C34.5815 97.3764 30.8479 97.4527 27.7068 95.6627C24.5658 93.8727 22.7659 90.6429 21.9407 86.8347C21.1154 83.0262 21.1989 78.3891 22.0261 73.2927C23.6832 63.0835 28.4057 50.5417 35.7305 38.0191C43.0552 25.4964 51.6978 15.1886 59.8265 8.66747C63.8844 5.41214 67.9111 3.0222 71.6653 1.82341C75.4192 0.624711 79.1528 0.548411 82.2939 2.33843C85.4349 4.12846 87.2348 7.35821 88.06 11.1664C88.8853 14.975 88.8018 19.6121 87.9746 24.7085Z" fill="#61DAFB"/>
</g>
<defs>
<clipPath id="clip0_4_307">
<rect width="109.372" height="96.0513" fill="white" transform="translate(0.313843 0.974365)"/>
</clipPath>
</defs>
</svg>
