<svg width="18" height="15" viewBox="0 0 18 15" fill="none" xmlns="http://www.w3.org/2000/svg">
<path d="M0.5348 6.73062C2.31009 5.75276 4.2918 4.93659 6.1434 4.11627C9.32888 2.77265 12.527 1.45232 15.7574 0.223105C16.3859 0.0136718 17.5152 -0.191117 17.626 0.740279C17.5653 2.05871 17.3159 3.36943 17.1448 4.68015C16.7106 7.56253 16.2086 10.435 15.7192 13.3079C15.5505 14.2649 14.3518 14.7603 13.5847 14.1479C11.7414 12.9027 9.8838 11.6697 8.06396 10.3957C7.46783 9.78995 8.02063 8.92006 8.55303 8.4875C10.0713 6.99125 11.6814 5.72002 13.1203 4.14646C13.5085 3.20919 12.3616 3.99908 11.9834 4.24114C9.90485 5.67347 7.87721 7.19325 5.68581 8.45208C4.56644 9.06826 3.2618 8.54169 2.14294 8.19787C1.13976 7.78251 -0.330295 7.36404 0.534699 6.73074L0.5348 6.73062Z" fill="white"/>
</svg>
